<?xml version="1.0" encoding="UTF-8"?>
<svg viewBox="0 0 237 224" version="1.1" xmlns="http://www.w3.org/2000/svg" xmlns:xlink="http://www.w3.org/1999/xlink">
    <title>alert</title>
    <g id="Argon-Website" stroke="none" stroke-width="1" fill="none" fill-rule="evenodd" opacity="0.362723214">
        <g id="Blocked" transform="translate(-202, -417)" fill="#FFFFFF" fill-rule="nonzero">
            <path d="M433.726096,588.137661 L350.131507,434.469486 C336.700632,411.858528 303.960247,411.828486 290.511347,434.469486 L206.920918,588.137661 C193.191004,611.242241 209.813786,640.5 236.724065,640.5 L403.916015,640.5 C430.803647,640.5 447.456009,611.265813 433.726096,588.137661 Z M320.321427,612.768403 C312.677674,612.768403 306.455628,606.546357 306.455628,598.902604 C306.455628,591.258852 312.677674,585.036806 320.321427,585.036806 C327.965179,585.036806 334.187225,591.258852 334.187225,598.902604 C334.187225,606.546357 327.965179,612.768403 320.321427,612.768403 Z M334.187225,557.305209 C334.187225,564.948961 327.965179,571.171007 320.321427,571.171007 C312.677674,571.171007 306.455628,564.948961 306.455628,557.305209 L306.455628,487.976216 C306.455628,480.332464 312.677674,474.110418 320.321427,474.110418 C327.965179,474.110418 334.187225,480.332464 334.187225,487.976216 L334.187225,557.305209 Z" id="alert"></path>
        </g>
    </g>
</svg>