<?xml version="1.0" encoding="UTF-8"?>
<svg viewBox="0 0 68 76" version="1.1" xmlns="http://www.w3.org/2000/svg" xmlns:xlink="http://www.w3.org/1999/xlink">
    <title>arbitrum</title>
    <g id="Argon-Website" stroke="none" stroke-width="1" fill="none" fill-rule="evenodd" opacity="0.5">
        <g id="v2" transform="translate(-862, -957)" fill="#FFFFFF" fill-rule="nonzero">
            <path d="M896.075868,957.464518 L896.351575,957.471754 C897.242207,957.515258 898.123112,957.755751 898.906739,958.215118 L926.498813,974.127849 C928.27023,975.148665 929.351095,977.010154 929.351095,979.051788 L929.351095,1010.87725 C929.351095,1012.91888 928.27023,1014.78037 926.498813,1015.80119 L921.587868,1018.63552 L908.934761,983.975727 L908.934761,983.945703 C908.724593,983.40527 907.973993,983.40527 907.763825,983.945703 L904.130918,993.913677 C904.040846,994.183893 904.040846,994.484134 904.130918,994.784374 L914.352868,1022.81252 L911.473868,1024.47452 L902.809862,1000.69911 C902.612829,1000.19245 901.940807,1000.16078 901.684401,1000.60411 L901.638925,1000.69911 L898.006018,1010.66708 C897.915946,1010.9373 897.915946,1011.23754 898.006018,1011.53778 L904.239868,1028.65152 L898.936763,1031.71392 C898.036042,1032.22433 897.075274,1032.46452 896.084481,1032.46452 C895.093689,1032.46452 894.102896,1032.22433 893.232199,1031.71392 L887.952868,1028.66552 L906.562864,977.610635 C906.702261,977.220323 906.453338,976.83001 906.080521,976.776243 L905.992408,976.769962 L905.992408,976.799986 L898.996811,976.799986 C898.486403,976.799986 898.006018,977.13025 897.825874,977.610635 L880.718868,1024.48852 L877.840868,1022.82752 L894.343088,977.610635 C894.482485,977.220323 894.233562,976.83001 893.860745,976.776243 L893.772632,976.769962 L893.742608,976.799986 L886.747011,976.799986 C886.236603,976.799986 885.756219,977.13025 885.576075,977.610635 L870.605868,1018.65052 L865.67015,1015.80119 C863.898733,1014.78037 862.817868,1012.91888 862.817868,1010.87725 L862.817868,979.051788 C862.817868,977.010154 863.898733,975.148665 865.67015,974.127849 L893.232199,958.215118 C894.042848,957.755751 894.902135,957.515258 895.788174,957.471754 L896.075868,957.464518 Z" id="arbitrum"></path>
        </g>
    </g>
</svg>