<?xml version="1.0" encoding="UTF-8"?>
<svg viewBox="0 0 76 76" version="1.1" xmlns="http://www.w3.org/2000/svg" xmlns:xlink="http://www.w3.org/1999/xlink">
    <title>bnbchain</title>
    <g id="Argon-Website" stroke="none" stroke-width="1" fill="none" fill-rule="evenodd" opacity="0.5">
        <g id="v2" transform="translate(-1114, -1142)" fill="#FFFFFF">
            <path d="M1152.44109,1142.46452 C1173.15323,1142.46452 1189.94109,1159.25238 1189.94109,1179.96452 C1189.94109,1200.67666 1173.15323,1217.46452 1152.44109,1217.46452 C1131.72895,1217.46452 1114.94109,1200.67666 1114.94109,1179.96452 C1114.94109,1159.25238 1131.72895,1142.46452 1152.44109,1142.46452 Z M1157.35996,1196.91764 L1152.42907,1199.82029 L1147.52222,1196.91764 L1147.52222,1202.69589 L1152.42907,1205.59853 L1157.35996,1202.69589 L1157.35996,1196.91764 Z M1130.64722,1177.06488 L1130.64722,1192.81007 L1144.00359,1200.6436 L1144.00359,1194.83832 L1135.57811,1189.88038 L1135.55107,1179.96452 L1130.64722,1177.06488 Z M1174.23797,1177.06187 L1169.33111,1179.96452 L1169.30407,1189.88038 L1160.8816,1194.83531 L1160.8816,1200.6406 L1174.23797,1192.80707 L1174.23797,1177.06187 Z M1160.87559,1169.2013 L1152.42607,1174.18327 L1144.02763,1169.2013 L1139.09974,1172.10394 L1139.09974,1177.90923 L1147.54926,1182.86716 L1147.54926,1192.80707 L1152.45611,1195.68267 L1157.36297,1192.80707 L1157.36297,1182.86716 L1165.81248,1177.90923 L1165.78544,1172.10394 L1165.80648,1172.10394 L1160.87559,1169.2013 Z M1139.09674,1182.01981 L1139.09674,1187.82509 L1144.00359,1190.7007 L1144.00359,1184.92245 L1139.09674,1182.01981 Z M1165.78544,1182.01981 L1160.87859,1184.92245 L1160.87859,1190.7007 L1165.78544,1187.82509 L1165.78544,1182.01981 Z M1135.55107,1164.24336 L1130.64422,1167.14601 L1130.64422,1172.92425 L1135.55107,1175.8269 L1135.55107,1170.04865 L1140.48196,1167.14601 L1135.55107,1164.24336 Z M1169.30407,1164.24336 L1164.39722,1167.14601 L1169.30407,1170.04865 L1169.30407,1175.8269 L1174.23496,1172.92425 L1174.23496,1167.14601 L1169.30407,1164.24336 Z M1152.42907,1164.24336 L1147.52222,1167.14601 L1152.42907,1170.04865 L1157.35996,1167.14601 L1152.42907,1164.24336 Z M1152.42907,1154.3305 L1139.09674,1162.19108 L1144.00359,1165.09372 L1152.42907,1160.11175 L1160.87859,1165.09372 L1165.78544,1162.19108 L1152.42907,1154.3305 Z" id="bnbchain"></path>
        </g>
    </g>
</svg>