<?xml version="1.0" encoding="UTF-8"?>
<svg viewBox="0 0 82 76" version="1.1" xmlns="http://www.w3.org/2000/svg" xmlns:xlink="http://www.w3.org/1999/xlink">
    <title>cardano</title>
    <g id="Argon-Website" stroke="none" stroke-width="1" fill="none" fill-rule="evenodd" opacity="0.5">
        <g id="v2" transform="translate(-1039, -957)" fill="#FFFFFF" fill-rule="nonzero">
            <path d="M1061.46122,994.693978 C1061.28807,997.702379 1063.60389,1000.27792 1066.61229,1000.45106 C1066.72051,1000.45106 1066.82872,1000.45106 1066.93694,1000.45106 C1069.96698,1000.45106 1072.41266,998.005384 1072.39102,994.975339 C1072.39102,991.945295 1069.94534,989.499616 1066.9153,989.52126 C1064.01511,989.52126 1061.61272,991.793793 1061.46122,994.693978 Z M1041.07335,993.287172 C1040.0994,993.222242 1039.25532,993.979753 1039.21203,994.953696 C1039.16875,995.927639 1039.90462,996.771723 1040.87856,996.815009 C1041.8525,996.879939 1042.67494,996.122428 1042.73987,995.148485 C1042.8048,994.174542 1042.04729,993.352101 1041.07335,993.287172 C1041.07335,993.287172 1041.07335,993.287172 1041.07335,993.287172 Z M1061.11493,962.965085 C1061.98065,962.532221 1062.32694,961.450062 1061.89408,960.584335 C1061.46122,959.718608 1060.37906,959.372318 1059.51333,959.805181 C1058.6476,960.238045 1058.30131,961.29856 1058.73418,962.164287 C1059.16704,963.051657 1060.22756,963.419591 1061.11493,962.965085 C1061.09328,962.965085 1061.11493,962.965085 1061.11493,962.965085 Z M1066.65558,972.639583 C1067.99746,971.968645 1068.53854,970.323764 1067.8676,968.981887 C1067.19666,967.64001 1065.55178,967.098931 1064.2099,967.769869 C1062.86802,968.440808 1062.32694,970.085689 1062.99788,971.427566 C1063.66882,972.769443 1065.3137,973.310522 1066.65558,972.639583 Z M1047.99916,979.284038 C1049.03804,979.954976 1050.4232,979.673615 1051.11578,978.634743 C1051.78672,977.59587 1051.50536,976.210707 1050.46648,975.518126 C1049.42761,974.847187 1048.04245,975.128549 1047.34987,976.167421 C1047.34987,976.167421 1047.34987,976.167421 1047.34987,976.167421 C1046.65729,977.206293 1046.96029,978.6131 1047.99916,979.284038 Z M1051.31057,992.313229 C1049.79555,992.226656 1048.5186,993.373745 1048.43203,994.888767 C1048.34545,996.403789 1049.49254,997.680736 1051.00756,997.767309 C1052.52259,997.853882 1053.79953,996.706793 1053.88611,995.191771 C1053.88611,995.191771 1053.88611,995.191771 1053.88611,995.191771 C1053.97268,993.698392 1052.82559,992.399802 1051.31057,992.313229 Z M1048.30217,1010.645 C1047.19837,1011.20772 1046.74386,1012.5496 1047.30658,1013.67504 C1047.8693,1014.77884 1049.21118,1015.23335 1050.33663,1014.67063 C1051.44043,1014.10791 1051.89493,1012.76603 1051.33221,1011.64058 C1051.33221,1011.64058 1051.33221,1011.64058 1051.33221,1011.64058 C1050.76949,1010.53678 1049.40597,1010.08228 1048.30217,1010.645 C1048.30217,1010.645 1048.30217,1010.645 1048.30217,1010.645 Z M1058.90732,986.664361 C1060.4007,987.638303 1062.39187,987.227083 1063.34417,985.733704 C1064.31812,984.240325 1063.9069,982.249153 1062.41352,981.296853 C1060.92014,980.32291 1058.92897,980.734131 1057.97667,982.22751 C1057.00272,983.699246 1057.41394,985.690418 1058.90732,986.664361 C1058.90732,986.664361 1058.90732,986.664361 1058.90732,986.664361 Z M1092.56246,972.423152 C1093.81776,973.245592 1095.52757,972.899302 1096.35001,971.643997 C1097.17245,970.388693 1096.82616,968.678883 1095.57086,967.856442 C1094.31556,967.034001 1092.60575,967.380292 1091.7833,968.635596 C1091.7833,968.635596 1091.7833,968.635596 1091.7833,968.635596 C1090.93922,969.912544 1091.28551,971.600711 1092.56246,972.423152 C1092.56246,972.423152 1092.56246,972.423152 1092.56246,972.423152 Z M1098.1464,962.791939 C1098.96884,963.333018 1100.051,963.094944 1100.59208,962.272503 C1101.13316,961.450062 1100.89508,960.367904 1100.07264,959.826824 C1099.2502,959.285745 1098.16804,959.52382 1097.62696,960.324617 C1097.10753,961.147058 1097.3456,962.25086 1098.1464,962.791939 C1098.1464,962.791939 1098.1464,962.791939 1098.1464,962.791939 Z M1092.97368,989.477973 C1089.96528,989.304828 1087.3681,991.620647 1087.21659,994.629049 C1087.04345,997.63745 1089.35927,1000.23463 1092.36767,1000.38613 C1092.47589,1000.38613 1092.5841,1000.38613 1092.67067,1000.38613 C1095.67908,1000.38613 1098.12475,997.940454 1098.12475,994.91041 C1098.1464,992.031868 1095.87386,989.629475 1092.97368,989.477973 L1092.97368,989.477973 Z M1068.45196,986.274783 C1069.38262,988.114453 1071.26558,989.283185 1073.34332,989.283185 C1076.35172,989.283185 1078.7974,986.837506 1078.7974,983.807461 C1078.7974,982.963378 1078.60261,982.119294 1078.21303,981.34014 C1076.84951,978.634743 1073.55975,977.552584 1070.876,978.916104 C1068.1706,980.301267 1067.08844,983.59103 1068.45196,986.274783 L1068.45196,986.274783 Z M1111.2838,979.284038 C1112.38761,978.721316 1112.82047,977.357796 1112.25775,976.253994 C1111.69502,975.150192 1110.3315,974.717328 1109.2277,975.280051 C1108.1239,975.842773 1107.69104,977.18465 1108.23212,978.288452 C1108.81648,979.392254 1110.15836,979.846761 1111.2838,979.284038 C1111.2838,979.284038 1111.2838,979.284038 1111.2838,979.284038 Z M1097.43217,981.015492 C1095.85222,981.816289 1095.20293,983.742532 1096.00372,985.322484 C1096.80452,986.902435 1098.73076,987.551731 1100.31072,986.750933 C1101.89067,985.950136 1102.53996,984.023893 1101.73916,982.443942 C1100.93837,980.86399 1099.01212,980.236338 1097.43217,981.015492 Z M1079.57655,961.969499 C1080.81022,962.034428 1081.87073,961.082128 1081.9573,959.848467 C1082.04388,958.614806 1081.06993,957.554291 1079.83627,957.467718 C1078.60261,957.402789 1077.5421,958.333445 1077.45552,959.567106 C1077.39059,960.82241 1078.34289,961.882926 1079.57655,961.969499 C1079.57655,961.969499 1079.57655,961.969499 1079.57655,961.969499 Z M1079.55491,976.102491 C1081.32965,976.210707 1082.84467,974.847187 1082.93125,973.072447 C1083.03946,971.297707 1081.67594,969.782684 1079.9012,969.696112 C1078.12646,969.587896 1076.61144,970.951416 1076.52487,972.726156 C1076.43829,974.500896 1077.78017,976.015919 1079.55491,976.102491 C1079.55491,976.102491 1079.55491,976.102491 1079.55491,976.102491 Z M1062.1538,1008.91354 C1063.73375,1008.11275 1064.38305,1006.1865 1063.58225,1004.60655 C1062.78145,1003.0266 1060.85521,1002.37731 1059.27526,1003.1781 C1057.6953,1003.9789 1057.04601,1005.90514 1057.84681,1007.48509 C1058.6476,1009.06505 1060.57385,1009.71434 1062.1538,1008.91354 Z M1081.63266,980.79906 C1079.98777,983.331312 1080.68036,986.707647 1083.21261,988.352528 C1085.74486,989.997409 1089.12119,989.304828 1090.76608,986.772576 C1092.41096,984.240325 1091.71837,980.86399 1089.18612,979.219109 C1088.29875,978.634743 1087.25988,978.331738 1086.19937,978.331738 C1084.3597,978.331738 1082.64988,979.262395 1081.63266,980.79906 Z M1091.13401,1003.65425 C1089.77049,1000.94886 1086.48073,999.866697 1083.79697,1001.23022 C1081.09158,1002.59374 1080.00942,1005.8835 1081.37294,1008.56725 C1082.73646,1011.27265 1086.02622,1012.35481 1088.70997,1010.99129 C1088.70997,1010.99129 1088.70997,1010.99129 1088.70997,1010.99129 C1091.39373,1009.64941 1092.49753,1006.40294 1091.15565,1003.69754 C1091.15565,1003.6759 1091.15565,1003.6759 1091.13401,1003.65425 Z M1100.67865,1003.26468 C1099.18527,1002.29073 1097.1941,1002.70195 1096.2418,1004.19533 C1095.26786,1005.68871 1095.67908,1007.67988 1097.17245,1008.63218 C1098.66583,1009.60613 1100.65701,1009.19491 1101.60931,1007.70153 C1102.58325,1006.22979 1102.17203,1004.23862 1100.67865,1003.26468 C1100.67865,1003.26468 1100.67865,1003.26468 1100.67865,1003.26468 Z M1111.15395,995.061912 C1111.24052,993.54689 1110.09343,992.269943 1108.57841,992.18337 C1107.06339,992.096797 1105.78644,993.243886 1105.69987,994.758908 C1105.61329,996.27393 1106.76038,997.550877 1108.2754,997.63745 C1108.2754,997.63745 1108.2754,997.63745 1108.2754,997.63745 C1109.76878,997.724023 1111.06737,996.555291 1111.15395,995.061912 Z M1118.70741,993.114026 C1117.73347,993.049097 1116.88939,993.806608 1116.8461,994.780551 C1116.80281,995.754494 1117.53868,996.598578 1118.51262,996.641864 C1119.48657,996.706793 1120.30901,995.949282 1120.37394,994.975339 C1120.41722,994.001397 1119.68136,993.178956 1118.70741,993.114026 Z M1111.58681,1010.645 C1110.54794,1009.97406 1109.16277,1010.25542 1108.47019,1011.29429 C1107.79925,1012.33317 1108.08061,1013.71833 1109.11949,1014.41091 C1110.15836,1015.08185 1111.54352,1014.80049 1112.2361,1013.76161 C1112.92869,1012.72274 1112.62568,1011.31594 1111.58681,1010.645 C1111.58681,1010.645 1111.58681,1010.645 1111.58681,1010.645 Z M1061.41793,1027.1371 C1060.59549,1026.59602 1059.51333,1026.83409 1058.97225,1027.63489 C1058.43117,1028.45733 1058.66925,1029.53949 1059.47005,1030.08057 C1060.29249,1030.62165 1061.37464,1030.38357 1061.91572,1029.58278 C1061.91572,1029.58278 1061.91572,1029.58278 1061.91572,1029.58278 C1062.47845,1028.78198 1062.24037,1027.67818 1061.41793,1027.1371 Z M1098.47105,1026.96395 C1097.60532,1027.39681 1097.25903,1028.47897 1097.69189,1029.3447 C1098.12475,1030.21043 1099.20691,1030.55672 1100.07264,1030.12385 C1100.93837,1029.69099 1101.28466,1028.63048 1100.85179,1027.76475 C1100.41893,1026.87738 1099.35842,1026.50944 1098.47105,1026.96395 C1098.49269,1026.96395 1098.47105,1026.96395 1098.47105,1026.96395 Z M1077.95332,1009.12998 C1079.5982,1006.59772 1078.90562,1003.22139 1076.37336,1001.55486 C1073.84111,999.909983 1070.46478,1000.60256 1068.79825,1003.13482 C1067.13173,1005.66707 1067.84595,1009.0434 1070.37821,1010.70993 C1071.26558,1011.29429 1072.30445,1011.5973 1073.36496,1011.5973 C1075.22628,1011.61894 1076.93609,1010.68828 1077.95332,1009.12998 Z M1067.02351,1017.50588 C1065.76821,1016.68344 1064.0584,1017.02973 1063.23596,1018.28504 C1062.41352,1019.54034 1062.75981,1021.25015 1064.01511,1022.07259 C1065.27042,1022.89503 1066.98023,1022.54874 1067.80267,1021.29344 C1067.80267,1021.29344 1067.80267,1021.29344 1067.80267,1021.29344 C1068.64675,1020.03814 1068.30046,1018.32832 1067.02351,1017.50588 Z M1079.77134,1027.95954 C1078.53768,1027.89461 1077.47717,1028.84691 1077.39059,1030.08057 C1077.30402,1031.31423 1078.27796,1032.37474 1079.51162,1032.46132 C1080.74529,1032.52625 1081.8058,1031.59559 1081.89237,1030.36193 C1081.9573,1029.10663 1081.005,1028.04611 1079.77134,1027.95954 C1079.77134,1027.95954 1079.77134,1027.95954 1079.77134,1027.95954 Z M1079.79299,1013.82654 C1078.01825,1013.71833 1076.50322,1015.08185 1076.41665,1016.85659 C1076.30843,1018.63133 1077.67195,1020.14635 1079.4467,1020.23292 C1081.22144,1020.3195 1082.73646,1018.97762 1082.82303,1017.20288 C1082.93125,1015.44978 1081.56773,1013.91312 1079.79299,1013.82654 C1079.79299,1013.82654 1079.79299,1013.82654 1079.79299,1013.82654 Z M1092.93039,1017.28945 C1091.58852,1017.98203 1091.04744,1019.62692 1091.74002,1020.96879 C1092.4326,1022.31067 1094.07748,1022.85175 1095.41936,1022.15917 C1096.76123,1021.48823 1097.30231,1019.84335 1096.63138,1018.50147 C1095.93879,1017.15959 1094.29391,1016.59687 1092.93039,1017.28945 C1092.93039,1017.28945 1092.93039,1017.28945 1092.93039,1017.28945 Z" id="cardano"></path>
        </g>
    </g>
</svg>