<?xml version="1.0" encoding="UTF-8"?>
<svg viewBox="0 0 45 76" version="1.1" xmlns="http://www.w3.org/2000/svg" xmlns:xlink="http://www.w3.org/1999/xlink">
    <title>ethereum</title>
    <g id="Argon-Website" stroke="none" stroke-width="1" fill="none" fill-rule="evenodd" opacity="0.5">
        <g id="v2" transform="translate(-708, -957)" fill="#FFFFFF">
            <path d="M752.958744,999.935922 L730.527185,1032.36352 L730.527655,1032.46452 L730.492185,1032.41352 L730.457338,1032.46452 L730.457185,1032.36352 L708.012185,999.935922 L730.492185,1014.04752 L752.958744,999.935922 Z M741.018935,1011.38351 L733.804422,1015.91192 L733.804422,1021.79041 L741.018935,1011.38351 Z M719.966057,1011.38351 L727.18057,1021.79041 L727.18057,1015.91192 L719.966057,1011.38351 Z M730.457338,957.464518 L752.90249,996.082557 L730.457338,1010.24438 L730.457338,1010.23032 L708.012185,996.082557 L730.457338,957.464518 Z M733.762185,989.120518 L733.762232,1004.23932 L746.397185,996.272518 L733.762185,989.120518 Z M727.138185,989.071518 L714.461185,996.246518 L727.13838,1004.23932 L727.138185,989.071518 Z M733.762232,969.826228 L733.762185,985.291518 L747.189185,992.891518 L733.762232,969.826228 Z M727.13838,969.826228 L713.754185,992.817518 L727.138185,985.242518 L727.13838,969.826228 Z" id="ethereum"></path>
        </g>
    </g>
</svg>