<svg width="21px" height="20px" viewBox="0 0 21 20" version="1.1" xmlns="http://www.w3.org/2000/svg" xmlns:xlink="http://www.w3.org/1999/xlink">
    <g id="Argon-Website" stroke="none" stroke-width="1" fill="none" fill-rule="evenodd">
        <g id="argon.cash" transform="translate(-1370, -1178)" fill="currentColor" fill-rule="nonzero">
            <path d="M1388.87285,1183.22507 C1387.97863,1181.69292 1386.76566,1180.47991 1385.23365,1179.58577 C1383.7014,1178.69159 1382.02864,1178.24462 1380.21419,1178.24462 C1378.39997,1178.24462 1376.72667,1178.69173 1375.19474,1179.58577 C1373.66259,1180.47987 1372.44967,1181.69292 1371.55544,1183.22507 C1370.66135,1184.75718 1370.21429,1186.43026 1370.21429,1188.24425 C1370.21429,1190.42327 1370.85002,1192.3827 1372.12182,1194.12304 C1373.39347,1195.86352 1375.03627,1197.06786 1377.05006,1197.73621 C1377.28447,1197.77972 1377.458,1197.74911 1377.57082,1197.64518 C1377.6837,1197.54111 1377.74006,1197.41077 1377.74006,1197.25471 C1377.74006,1197.22867 1377.73783,1196.99439 1377.7335,1196.55161 C1377.72903,1196.10883 1377.72693,1195.72255 1377.72693,1195.39296 L1377.42744,1195.44477 C1377.23649,1195.47975 1376.9956,1195.49457 1376.70478,1195.49038 C1376.41409,1195.48632 1376.11232,1195.45585 1375.79988,1195.39921 C1375.4873,1195.34307 1375.19657,1195.21287 1374.92745,1195.00888 C1374.65847,1194.80489 1374.46752,1194.53787 1374.35465,1194.20823 L1374.22445,1193.90861 C1374.13766,1193.70913 1374.00103,1193.48753 1373.81436,1193.24464 C1373.6277,1193.00152 1373.43894,1192.8367 1373.24799,1192.74991 L1373.15683,1192.68465 C1373.09608,1192.64128 1373.03971,1192.58897 1372.98759,1192.52827 C1372.93551,1192.46757 1372.89651,1192.40682 1372.87047,1192.34599 C1372.84439,1192.2851 1372.866,1192.23517 1372.93555,1192.19599 C1373.0051,1192.15682 1373.13079,1192.1378 1373.31316,1192.1378 L1373.57348,1192.1767 C1373.7471,1192.2115 1373.96185,1192.31543 1374.21802,1192.48914 C1374.47404,1192.66272 1374.68451,1192.88837 1374.84947,1193.16601 C1375.04922,1193.52201 1375.28988,1193.79327 1375.57213,1193.97993 C1375.85415,1194.16659 1376.1385,1194.25977 1376.4249,1194.25977 C1376.7113,1194.25977 1376.95866,1194.23806 1377.16708,1194.19487 C1377.37527,1194.15145 1377.57059,1194.08619 1377.75297,1193.99945 C1377.83109,1193.41762 1378.0438,1192.97064 1378.3909,1192.6582 C1377.89617,1192.60621 1377.45138,1192.52791 1377.0563,1192.42379 C1376.66145,1192.31954 1376.25342,1192.15034 1375.83249,1191.91575 C1375.41132,1191.68147 1375.06194,1191.39056 1374.78425,1191.0435 C1374.50652,1190.69626 1374.27858,1190.24039 1374.10077,1189.6763 C1373.92286,1189.11198 1373.83388,1188.46101 1373.83388,1187.72321 C1373.83388,1186.67269 1374.17683,1185.77874 1374.8626,1185.04085 C1374.54136,1184.25105 1374.57168,1183.36567 1374.95367,1182.3848 C1375.20542,1182.30658 1375.57874,1182.36528 1376.07347,1182.56051 C1376.56828,1182.75584 1376.93057,1182.92317 1377.16069,1183.0619 C1377.39082,1183.20058 1377.5752,1183.31811 1377.71411,1183.41342 C1378.52156,1183.18781 1379.35481,1183.07499 1380.2141,1183.07499 C1381.0734,1183.07499 1381.90683,1183.18781 1382.71432,1183.41342 L1383.20909,1183.10107 C1383.54744,1182.89266 1383.94698,1182.70166 1384.40678,1182.52804 C1384.86684,1182.35452 1385.21864,1182.30672 1385.46181,1182.38493 C1385.85228,1183.36586 1385.88708,1184.25119 1385.56574,1185.04098 C1386.25146,1185.77888 1386.59455,1186.67306 1386.59455,1187.72335 C1386.59455,1188.46115 1386.50526,1189.11417 1386.32762,1189.68282 C1386.14976,1190.25157 1385.91987,1190.70698 1385.63784,1191.05002 C1385.3555,1191.39302 1385.00389,1191.68166 1384.58295,1191.91588 C1384.16192,1192.15029 1383.75375,1192.31949 1383.3589,1192.42374 C1382.96387,1192.528 1382.51908,1192.60635 1382.02436,1192.65843 C1382.47558,1193.0489 1382.70123,1193.66526 1382.70123,1194.50722 L1382.70123,1197.25434 C1382.70123,1197.4104 1382.7555,1197.5407 1382.86413,1197.64482 C1382.97263,1197.74875 1383.14397,1197.77935 1383.37838,1197.7358 C1385.39244,1197.06754 1387.03523,1195.86315 1388.30685,1194.12268 C1389.57832,1192.38233 1390.21429,1190.4229 1390.21429,1188.24389 C1390.21383,1186.43012 1389.76653,1184.75718 1388.87285,1183.22507 Z" id="github"></path>
        </g>
    </g>
</svg>