<?xml version="1.0" encoding="UTF-8"?>
<svg viewBox="0 0 76 76" version="1.1" xmlns="http://www.w3.org/2000/svg" xmlns:xlink="http://www.w3.org/1999/xlink">
    <title>gnosis</title>
    <g id="Argon-Website" stroke="none" stroke-width="1" fill="none" fill-rule="evenodd" opacity="0.5">
        <g id="v2" transform="translate(-1225, -1136)" fill="#FFFFFF" fill-rule="nonzero">
            <path d="M1295.34998,1154.10017 C1298.88982,1159.95317 1300.78241,1166.68237 1300.765,1173.53423 C1300.765,1194.24754 1283.97694,1211.03548 1263.26363,1211.03548 C1242.55032,1211.03548 1225.76238,1194.24754 1225.76238,1173.53423 C1225.76238,1166.68237 1227.63744,1159.95317 1231.1948,1154.10017 L1234.13883,1157.06172 L1237.24057,1160.16346 C1232.96472,1165.28045 1232.96472,1172.7106 1237.24057,1177.8276 C1242.11222,1183.66307 1250.8041,1184.43413 1256.63958,1179.56247 L1263.26363,1186.18652 L1269.90521,1179.54494 C1275.0222,1183.82079 1282.45236,1183.82079 1287.56935,1179.54494 C1293.40482,1174.67329 1294.17588,1165.98141 1289.30422,1160.14593 L1295.34998,1154.10017 Z M1290.39071,1147.65136 C1291.31947,1148.6327 1292.2132,1149.64909 1293.0193,1150.71805 L1263.26363,1180.49124 L1233.50796,1150.71805 C1234.33159,1149.64909 1235.20779,1148.6327 1236.13656,1147.65136 C1236.53961,1147.23078 1236.96018,1146.81021 1237.39828,1146.38963 C1252.38126,1132.10761 1276.10869,1132.66838 1290.39071,1147.65136 Z M1240.09697,1163.03738 L1253.76565,1176.70606 C1252.06583,1178.02036 1249.96295,1178.73884 1247.80751,1178.73884 C1245.65206,1178.73884 1243.56671,1178.02036 1241.84936,1176.72359 C1237.59104,1173.42909 1236.80247,1167.2957 1240.09697,1163.03738 Z M1286.43029,1163.01986 C1287.74459,1164.71968 1288.46307,1166.82256 1288.46307,1168.978 C1288.46307,1171.13345 1287.74459,1173.23632 1286.43029,1174.93615 C1283.13579,1179.19447 1277.01993,1179.98304 1272.76161,1176.68854 Z M1263.26363,1140.93968 C1254.50166,1140.93968 1246.3355,1144.32181 1240.20211,1150.49024 L1263.26363,1173.55175 L1286.32515,1150.49024 C1280.19177,1144.32181 1272.02561,1140.93968 1263.26363,1140.93968 Z" id="gnosis"></path>
        </g>
    </g>
</svg>