<?xml version="1.0" encoding="UTF-8"?>
<svg viewBox="0 0 114 114" version="1.1" xmlns="http://www.w3.org/2000/svg" xmlns:xlink="http://www.w3.org/1999/xlink">
    <title>Combined Shape</title>
    <g id="Argon-Website" stroke="none" stroke-width="1" fill="none" fill-rule="evenodd" opacity="0.625209263">
        <g id="argon.network" transform="translate(-660, -201)" fill="#FFFFFF" fill-rule="nonzero">
            <path d="M717,201 C732.225234,201 746.539137,206.929113 757.305234,217.694766 C768.070887,228.460863 774,242.774766 774,258 C774,273.225234 768.070887,287.539137 757.305234,298.305234 C746.539137,309.070887 732.225234,315 717,315 C701.774766,315 687.460863,309.070887 676.694766,298.305234 C665.929113,287.539137 660,273.225234 660,258 C660,247.724637 662.764723,237.651891 667.995586,228.870773 C673.07393,220.34482 680.320945,213.254777 688.953105,208.366582 C689.756004,207.912586 690.774879,208.194469 691.229098,208.996922 C691.683539,209.799375 691.401211,210.818473 690.598758,211.272914 C682.470691,215.875441 675.646723,222.551789 670.864734,230.579883 C665.942027,238.844215 663.339844,248.326031 663.339844,258 C663.339844,272.333273 668.921391,285.80843 679.05648,295.94352 C689.19157,306.078609 702.666727,311.660156 717,311.660156 C731.333273,311.660156 744.80843,306.078609 754.94352,295.94352 C765.078609,285.80843 770.660156,272.333273 770.660156,258 C770.660156,243.666727 765.078609,230.19157 754.94352,220.05648 C744.80843,209.921391 731.333273,204.339844 717,204.339844 C709.9605,204.339844 703.117828,205.68157 696.662355,208.32784 C695.808914,208.67741 694.83368,208.269281 694.483887,207.41584 C694.133871,206.562398 694.542223,205.587164 695.395664,205.237371 C702.255035,202.425668 709.523871,201 717,201 Z M717,208.150605 C730.315289,208.150605 742.833469,213.335824 752.248934,222.751066 C761.664176,232.166531 766.849395,244.684711 766.849395,258 C766.849395,271.315289 761.664176,283.833469 752.248934,293.248934 C742.833469,302.664176 730.315289,307.849395 717,307.849395 C711.209379,307.849395 705.534984,306.865031 700.134234,304.923469 C699.26632,304.611527 698.815664,303.654996 699.127605,302.787305 C699.439547,301.919168 700.396078,301.468734 701.263992,301.780676 C706.301367,303.591316 711.595687,304.509551 717,304.509551 C742.645324,304.509551 763.509551,283.645324 763.509551,258 C763.509551,232.354676 742.645324,211.490449 717,211.490449 C691.354676,211.490449 670.490449,232.354676 670.490449,258 C670.490449,275.069941 679.81752,290.740711 694.831898,298.897055 C695.642145,299.337246 695.942285,300.351 695.502094,301.161469 C695.061902,301.971715 694.048148,302.271855 693.23768,301.831664 C677.146535,293.090625 667.150605,276.295219 667.150605,258 C667.150605,244.684711 672.335824,232.166531 681.751066,222.751066 C691.166531,213.335824 703.684711,208.150605 717,208.150605 Z M715.2377,227.470469 L715.855086,228.359205 L728.333881,246.323324 L737.681879,243.818798 L739.673943,251.253284 L732.999435,253.040678 L735.220579,256.237741 L740.621821,254.79081 L742.613885,262.225296 L739.887358,262.955802 L748.12274,274.808915 L749.372044,276.607304 L737.96473,279.663885 L737.350442,278.755356 L728.69421,265.954997 L711.776985,270.487954 L710.683769,285.900682 L710.606037,286.994624 L699.198732,290.051202 L699.381467,287.8691 L700.585768,273.486631 L697.860465,274.216938 L695.868401,266.782453 L701.268287,265.33523 L701.593323,261.45592 L694.920524,263.244927 L692.928459,255.810441 L702.275134,253.305744 L704.10122,231.508644 L704.191524,230.430283 L715.2377,227.470469 Z M721.9618,255.998203 L712.628059,258.499172 L712.353251,262.365023 L724.132717,259.208725 L721.9618,255.998203 Z M713.676878,243.745523 L713.205551,250.376948 L717.400566,249.252897 L713.676878,243.745523 Z" id="Combined-Shape"></path>
        </g>
    </g>
</svg>