<?xml version="1.0" encoding="UTF-8"?>
<svg viewBox="0 0 76 76" version="1.1" xmlns="http://www.w3.org/2000/svg" xmlns:xlink="http://www.w3.org/1999/xlink">
    <title>optimism</title>
    <g id="Argon-Website" stroke="none" stroke-width="1" fill="none" fill-rule="evenodd" opacity="0.5">
        <g id="v2" transform="translate(-145, -957)" fill="#FFFFFF" fill-rule="nonzero">
            <path d="M183.020474,957.035482 C203.731152,957.035482 220.520474,973.824804 220.520474,994.535482 C220.520474,1015.24616 203.731152,1032.03548 183.020474,1032.03548 C162.309796,1032.03548 145.520474,1015.24616 145.520474,994.535482 C145.520474,973.824804 162.309796,957.035482 183.020474,957.035482 Z M175.535474,984.230482 C170.225474,984.230482 166.925474,986.810482 165.650474,991.970482 C165.200474,993.875482 164.855474,995.495482 164.615474,996.845482 C164.525474,997.445482 164.480474,997.940482 164.480474,998.360482 C164.480474,1000.32548 165.185474,1001.85548 166.595474,1002.92048 C168.020474,1003.97048 169.850474,1004.49548 172.085474,1004.49548 C174.785474,1004.49548 176.945474,1003.88048 178.550474,1002.62048 C180.170474,1001.34548 181.295474,999.410482 181.955474,996.845482 C182.360474,995.270482 182.690474,993.635482 182.975474,991.970482 C183.065474,991.370482 183.110474,990.875482 183.110474,990.485482 C183.110474,989.180482 182.780474,988.055482 182.120474,987.110482 C181.460474,986.150482 180.560474,985.430482 179.420474,984.965482 C178.280474,984.470482 176.975474,984.230482 175.535474,984.230482 Z M196.070474,984.515482 L188.585474,984.515482 C188.390474,984.515482 188.210474,984.575482 188.045474,984.710482 C187.865474,984.845482 187.760474,985.010482 187.730474,985.220482 L183.845474,1003.52048 C183.815474,1003.71548 183.845474,1003.88048 183.935474,1004.03048 C184.055474,1004.16548 184.205474,1004.22548 184.415474,1004.22548 L188.240474,1004.22548 C188.435474,1004.22548 188.615474,1004.16548 188.780474,1004.03048 C188.960474,1003.89548 189.050474,1003.73048 189.095474,1003.52048 L190.385474,997.355482 L194.180474,997.355482 C196.640474,997.355482 198.575474,996.845482 199.985474,995.810482 C201.425474,994.775482 202.370474,993.185482 202.835474,991.025482 C202.940474,990.515482 203.000474,990.020482 203.000474,989.555482 C203.000474,987.920482 202.355474,986.675482 201.080474,985.805482 C199.820474,984.950482 198.155474,984.515482 196.070474,984.515482 Z M175.205474,988.265482 C176.990474,988.265482 177.875474,989.120482 177.875474,990.830482 C177.875474,991.250482 177.830474,991.655482 177.755474,992.045482 C177.530474,993.365482 177.200474,994.895482 176.765474,996.665482 C176.450474,997.955482 175.910474,998.900482 175.160474,999.515482 C174.425474,1000.13048 173.540474,1000.44548 172.490474,1000.44548 C170.690474,1000.44548 169.775474,999.590482 169.790474,997.850482 C169.790474,997.430482 169.835474,997.040482 169.910474,996.665482 C170.255474,994.835482 170.585474,993.305482 170.930474,992.045482 C171.245474,990.755482 171.770474,989.810482 172.505474,989.195482 C173.255474,988.580482 174.155474,988.265482 175.205474,988.265482 Z M195.590474,988.430482 C196.355474,988.430482 196.910474,988.580482 197.225474,988.880482 C197.540474,989.165482 197.705474,989.585482 197.705474,990.125482 C197.705474,990.365482 197.675474,990.650482 197.615474,990.965482 C197.420474,991.775482 197.030474,992.390482 196.430474,992.825482 C195.845474,993.260482 195.170474,993.470482 194.375474,993.470482 L191.150474,993.470482 L192.215474,988.430482 Z" id="optimism"></path>
        </g>
    </g>
</svg>