<?xml version="1.0" encoding="UTF-8"?>
<svg viewBox="0 0 71 76" version="1.1" xmlns="http://www.w3.org/2000/svg" xmlns:xlink="http://www.w3.org/1999/xlink">
    <title>polkadot</title>
    <g id="Argon-Website" stroke="none" stroke-width="1" fill="none" fill-rule="evenodd" opacity="0.5">
        <g id="v2" transform="translate(-1230, -951)" fill="#FFFFFF" fill-rule="nonzero">
            <path d="M1265.50066,966.767293 C1272.97013,966.767293 1279.02534,963.245607 1279.02534,958.901388 C1279.02534,954.557168 1272.97013,951.035482 1265.50066,951.035482 C1258.03119,951.035482 1251.97598,954.557168 1251.97598,958.901388 C1251.97598,963.245607 1258.03119,966.767293 1265.50066,966.767293 Z M1265.50066,1026.03548 C1272.97013,1026.03548 1279.02534,1022.5138 1279.02534,1018.16958 C1279.02534,1013.82536 1272.97013,1010.30367 1265.50066,1010.30367 C1258.03119,1010.30367 1251.97598,1013.82536 1251.97598,1018.16958 C1251.97598,1022.5138 1258.03119,1026.03548 1265.50066,1026.03548 Z M1246.65311,977.655568 C1250.38785,971.187004 1250.36361,964.181164 1246.59897,962.007585 C1242.83433,959.834007 1236.75489,963.31578 1233.02015,969.784344 C1229.28541,976.252908 1229.30965,983.258748 1233.07429,985.432327 C1236.83893,987.605905 1242.91837,984.124132 1246.65311,977.655568 Z M1297.97533,1007.28613 C1301.71007,1000.81756 1301.68789,993.812912 1297.92579,991.640802 C1294.1637,989.468692 1288.08632,992.951656 1284.35158,999.42022 C1280.61684,1005.88878 1280.63902,1012.89343 1284.40112,1015.06554 C1288.16321,1017.23765 1294.24059,1013.75469 1297.97533,1007.28613 Z M1246.60085,1015.06374 C1250.36549,1012.89016 1250.38973,1005.88432 1246.65499,999.415758 C1242.92025,992.947194 1236.84081,989.465421 1233.07617,991.638999 C1229.31153,993.812578 1229.2873,1000.81842 1233.02203,1007.28698 C1236.75677,1013.75555 1242.83621,1017.23732 1246.60085,1015.06374 Z M1297.92898,985.43405 C1301.69107,983.26194 1301.71325,976.25729 1297.97851,969.788726 C1294.24378,963.320163 1288.1664,959.837199 1284.4043,962.009309 C1280.64221,964.181418 1280.62003,971.186068 1284.35477,977.654632 C1288.0895,984.123196 1294.16688,987.60616 1297.92898,985.43405 Z" id="polkadot"></path>
        </g>
    </g>
</svg>