<svg viewBox="0 0 23 21" version="1.1" xmlns="http://www.w3.org/2000/svg" xmlns:xlink="http://www.w3.org/1999/xlink">
    <g id="Argon-Website" stroke="none" stroke-width="1" fill="none" fill-rule="evenodd">
        <g id="v2" transform="translate(-1349, -2228)" fill="currentColor" fill-rule="nonzero">
            <g id="Group-2" transform="translate(0, 2211)">
                <path d="M1371.22218,25.1075107 L1371.22218,36.9444115 C1371.22218,37.2512821 1370.97347,37.5 1370.6666,37.5 L1349.55559,37.5 C1349.24872,37.5 1349,37.2512821 1349,36.9444115 L1349,25.1075107 L1359.8539,30.7703768 C1360.01513,30.8543 1360.20705,30.8543 1360.36829,30.7703768 L1371.22218,25.1075107 Z M1367.33323,17.5 C1367.64011,17.5 1367.88882,17.7487179 1367.88882,18.0555885 L1367.88882,25.593248 L1360.11109,29.6515704 L1352.33336,25.593248 L1352.33336,18.0555885 C1352.33336,17.7487179 1352.58208,17.5 1352.88895,17.5 L1367.33323,17.5 Z M1362.88887,24.1667232 L1357.33332,24.1667232 C1357.02645,24.1667232 1356.77773,24.415441 1356.77773,24.7221422 C1356.77773,25.0290128 1357.02645,25.2777307 1357.33332,25.2777307 L1362.88887,25.2777307 C1363.19574,25.2777307 1363.44445,25.0290128 1363.44445,24.7221422 C1363.44445,24.415441 1363.19574,24.1667232 1362.88887,24.1667232 Z M1351.22218,23.0555461 L1351.22218,25.013415 L1349.50829,24.119421 L1351.22218,23.0555461 Z M1369,23.0555461 L1370.71339,24.119421 L1369,25.013415 L1369,23.0555461 Z M1365.11105,21.9445386 L1355.11113,21.9445386 C1354.80426,21.9445386 1354.55555,22.1932565 1354.55555,22.4999576 C1354.55555,22.8068283 1354.80426,23.0555461 1355.11113,23.0555461 L1365.11105,23.0555461 C1365.41792,23.0555461 1365.66664,22.8068283 1365.66664,22.4999576 C1365.66664,22.1932565 1365.41792,21.9445386 1365.11105,21.9445386 Z M1365.11105,19.7221846 L1355.11113,19.7221846 C1354.80426,19.7221846 1354.55555,19.9709024 1354.55555,20.2777731 C1354.55555,20.5846437 1354.80426,20.8333616 1355.11113,20.8333616 L1365.11105,20.8333616 C1365.41792,20.8333616 1365.66664,20.5846437 1365.66664,20.2777731 C1365.66664,19.9709024 1365.41792,19.7221846 1365.11105,19.7221846 Z" id="Combined-Shape"></path>
            </g>
        </g>
    </g>
</svg>